# xmcd CD database file
#
# Track frame offsets:
#	150
#	23931
#	44028
#	67427
#	85121
#	101191
#	116892
#	130142
#	147752
#	164874
#	181422
#
# Disc length: 2582 seconds
#
# Revision: 0
# Processed by: cddbd v1.5.1PL0 Copyright (c) Steve Scherf et al.
# Submitted via: CDex 1.51
#
DISCID=ae0a140b
DTITLE=Kingsnakes - Don't Let Me Down
DYEAR=2003
DGENRE=Blues
TTITLE0=Goin' Down South
TTITLE1=Somebody
TTITLE2=Don't Let Me Down
TTITLE3=Lokkin' For Somebody
TTITLE4=I Could Have Loved You
TTITLE5=Commit A Crime
TTITLE6=Crosscut Saw
TTITLE7=So Many Lines
TTITLE8=Blues For Renzo
TTITLE9=Moanin' At Midnight
TTITLE10=Give It A Shot!
EXTD=YEAR: 2003
EXTT0=
EXTT1=
EXTT2=
EXTT3=
EXTT4=
EXTT5=
EXTT6=
EXTT7=
EXTT8=
EXTT9=
EXTT10=
PLAYORDER=
